<?xml version="1.0" encoding="iso-8859-1"?>
<!-- Generator: Adobe Illustrator 19.0.0, SVG Export Plug-In . SVG Version: 6.00 Build 0)  -->
<svg version="1.1" id="Layer_1" xmlns="http://www.w3.org/2000/svg" xmlns:xlink="http://www.w3.org/1999/xlink" x="0px" y="0px"
	 viewBox="0 0 512 512" style="enable-background:new 0 0 512 512;" xml:space="preserve">
<path style="fill:#00C279;" d="M127.655,301.97v161.039h12.42c0,21.341,17.3,38.642,38.642,38.642s38.642-17.3,38.642-38.642
	c0,21.341,17.3,38.642,38.642,38.642s38.642-17.3,38.642-38.642c0,21.341,17.3,38.642,38.642,38.642
	c21.341,0,38.642-17.3,38.642-38.642h12.42V301.97H127.655z"/>
<path style="opacity:0.3;fill:#20272E;enable-background:new    ;" d="M384.345,463.008V301.971h-256.69v161.037h12.42
	c0,11.551,5.074,21.91,13.108,28.991c4.826-8.58,7.593-18.466,7.593-28.991V423.89c0-52.506,42.717-95.224,95.224-95.224
	s95.224,42.717,95.224,95.224v39.118c0,10.524,2.767,20.411,7.593,28.991c8.033-7.081,13.108-17.441,13.108-28.991H384.345z"/>
<path style="fill:#008678;" d="M140.075,463.008V423.89c0-64.023,51.901-115.925,115.925-115.925l0,0
	c64.023,0,115.925,51.901,115.925,115.925v39.118c0,21.341,17.3,38.642,38.642,38.642c21.341,0,38.642-17.3,38.642-38.642v-259.45
	c0-17.369-2.305-34.196-6.604-50.209C420.498,70.99,345.336,10.35,256,10.35l0,0c-89.336,0-164.498,60.638-186.604,142.998
	l-0.159,0.578c-4.202,15.837-6.445,32.471-6.445,49.631v259.45c0,21.341,17.3,38.642,38.642,38.642S140.075,484.349,140.075,463.008
	z"/>
<g>
	<circle style="fill:#20272E;" cx="163.826" cy="286.692" r="17.247"/>
	<circle style="fill:#20272E;" cx="348.174" cy="286.692" r="17.247"/>
	<path style="fill:#20272E;" d="M195.278,368.139c0,16.891,6.902,32.166,18.032,43.174c9.326-8.152,24.965-13.501,42.691-13.501
		s33.363,5.349,42.691,13.501c11.13-11.007,18.032-26.282,18.032-43.174H195.278z"/>
</g>
<path style="fill:#FF738D;" d="M298.691,411.313c-9.326-8.152-24.965-13.501-42.691-13.501s-33.363,5.349-42.691,13.501
	c10.969,10.847,26.044,17.55,42.691,17.55S287.721,422.16,298.691,411.313z"/>
<g>
	<path style="opacity:0.3;fill:#20272E;enable-background:new    ;" d="M62.792,463.008c0,21.341,17.3,38.642,38.642,38.642l0,0
		c21.341,0,38.642-17.3,38.642-38.642l0,0H62.792z"/>
	<path style="opacity:0.3;fill:#20272E;enable-background:new    ;" d="M371.925,463.008c0,21.341,17.3,38.642,38.642,38.642l0,0
		c21.341,0,38.642-17.3,38.642-38.642l0,0H371.925z"/>
	<path style="opacity:0.3;fill:#20272E;enable-background:new    ;" d="M442.604,153.349
		C420.498,70.99,345.338,10.352,256.001,10.35V501.65c21.34-0.001,38.64-17.3,38.64-38.642c0,21.341,17.3,38.642,38.642,38.642
		c21.341,0,38.642-17.3,38.642-38.642c0,21.341,17.3,38.642,38.642,38.642c21.341,0,38.642-17.3,38.642-38.642v-259.45
		C449.208,186.189,446.903,169.362,442.604,153.349z"/>
	<path style="fill:#20272E;" d="M452.601,150.666C428.791,61.956,347.946,0,256,0S83.209,61.956,59.413,150.614l-0.179,0.658
		c-4.506,16.983-6.791,34.574-6.791,52.286v259.45c0,27.015,21.977,48.992,48.992,48.992c15.688,0,29.668-7.422,38.642-18.929
		C149.049,504.578,163.029,512,178.717,512c15.683,0,29.668-7.407,38.642-18.907C226.332,504.593,240.317,512,256,512
		s29.668-7.407,38.642-18.907C303.615,504.593,317.6,512,333.283,512c15.688,0,29.668-7.422,38.642-18.929
		C380.898,504.578,394.878,512,410.566,512c27.015,0,48.992-21.977,48.992-48.992v-259.45
		C459.558,185.66,457.217,167.864,452.601,150.666z M361.574,463.008c0,15.6-12.691,28.291-28.291,28.291
		s-28.291-12.691-28.291-28.291c0-5.716-4.634-10.35-10.35-10.35s-10.35,4.634-10.35,10.35c0,15.6-12.691,28.291-28.291,28.291
		s-28.291-12.691-28.291-28.291c0-5.716-4.634-10.35-10.35-10.35c-5.716,0-10.35,4.634-10.35,10.35
		c0,15.6-12.691,28.291-28.291,28.291s-28.291-12.691-28.291-28.291V423.89c0-58.213,47.361-105.574,105.574-105.574
		s105.574,47.361,105.574,105.574V463.008z M438.857,463.008c0,15.6-12.691,28.291-28.291,28.291
		c-15.6,0-28.291-12.691-28.291-28.291V423.89c0-69.628-56.647-126.275-126.275-126.275S129.725,354.263,129.725,423.89v39.118
		c0,15.6-12.691,28.291-28.291,28.291s-28.291-12.691-28.291-28.291v-259.45c0-15.92,2.052-31.726,6.076-46.897l0.173-0.629
		C100.778,76.351,173.402,20.701,256,20.701s155.222,55.651,176.608,135.332c4.147,15.448,6.249,31.438,6.249,47.525V463.008z"/>
	<path style="fill:#20272E;" d="M316.722,357.789H195.278c-5.716,0-10.35,4.634-10.35,10.35c0,19.128,7.495,37.074,21.104,50.532
		l0,0l0,0c13.395,13.246,31.14,20.539,49.969,20.539s36.573-7.295,49.968-20.539c0.004-0.004,0.007-0.008,0.011-0.012
		c13.602-13.457,21.094-31.399,21.094-50.521C327.073,362.423,322.439,357.789,316.722,357.789z M256,418.511
		c-8.563,0-16.809-2.129-24.129-6.137c0.178-0.068,0.357-0.135,0.537-0.201c0.538-0.199,1.085-0.392,1.638-0.578
		c14.486-4.854,31.186-4.723,45.546,0.578c0.179,0.066,0.357,0.132,0.535,0.201C272.809,416.382,264.562,418.511,256,418.511z
		 M296.968,397.46c-0.286-0.166-0.582-0.32-0.874-0.482c-0.264-0.146-0.527-0.294-0.794-0.439
		c-23.291-12.516-55.257-12.531-78.602,0c-0.268,0.144-0.531,0.291-0.796,0.439c-0.29,0.161-0.587,0.316-0.872,0.482
		c-4.095-5.693-6.925-12.129-8.345-18.97h98.628C303.893,385.33,301.063,391.767,296.968,397.46z"/>
</g>
<g>
</g>
<g>
</g>
<g>
</g>
<g>
</g>
<g>
</g>
<g>
</g>
<g>
</g>
<g>
</g>
<g>
</g>
<g>
</g>
<g>
</g>
<g>
</g>
<g>
</g>
<g>
</g>
<g>
</g>
</svg>
